<svg xmlns="http://www.w3.org/2000/svg" xmlns:xlink="http://www.w3.org/1999/xlink" viewBox="0 0 185.24 178.96"><defs><style>.cls-1{fill:#bacce3;}.cls-2,.cls-5{fill:none;}.cls-3{isolation:isolate;}.cls-4{clip-path:url(#clip-path);}.cls-14,.cls-5{stroke:#231f20;stroke-miterlimit:10;}.cls-5{stroke-width:1.16px;}.cls-6{clip-path:url(#clip-path-2);}.cls-7{fill:#fefefd;}.cls-8{fill:#fdfdfd;}.cls-9{fill:#f9d8e3;}.cls-10{mix-blend-mode:hard-light;}.cls-11{fill:#fdfefe;}.cls-12,.cls-14{fill:#231f20;}.cls-13{fill:#f7f2f5;}.cls-14{stroke-width:0.58px;}</style><clipPath id="clip-path" transform="translate(18.06 -1.43)"><circle class="cls-1" cx="73.25" cy="96.88" r="73.25"/></clipPath><clipPath id="clip-path-2" transform="translate(18.06 -1.43)"><circle class="cls-2" cx="73.25" cy="96.88" r="73.25"/></clipPath></defs><g class="cls-3"><g id="Layer_1" data-name="Layer 1"><circle class="cls-1" cx="91.31" cy="95.45" r="73.25"/><g class="cls-4"><rect class="cls-1" x="31.28" y="29.51" width="125.67" height="111.88"/><path class="cls-1" d="M82.22,48.31a32.22,32.22,0,0,1-8.57-5.8A19.21,19.21,0,0,1,71.57,40a2.42,2.42,0,0,1,0-3,2.59,2.59,0,0,1,2.58-1.18,9.9,9.9,0,0,1,5.89,2.79c1.57,1.54,4.28,6.19,5.37,8.26.37-.51-1.07-3.94-1.19-4.25a11.09,11.09,0,0,1-.09-8.43A5,5,0,0,1,87,31.09a2.66,2.66,0,0,1,3.5,2.37c.17,1.82-.38,3.54-.57,5.31a21.36,21.36,0,0,1-1.15,6,3.33,3.33,0,0,0,1.31-1.83c.7-1.71,2.14-2.74,3.35-4a6.75,6.75,0,0,1,3-2.08,2.46,2.46,0,0,1,2.82.59,2.82,2.82,0,0,1,.26,3.3,22.7,22.7,0,0,1-4.53,5c-.94.87-2.1,1.5-3,2.39a1.5,1.5,0,0,1-1.35.48c-.18-.49-1.94.57-2.31.19.19-.42-.43-.73-.89-.71-.44-.14,0,0-.45-.07-1.26-.21-1.14-1-2.37,0-.4,0,0-.5,0,0C83.86,48.21,82.59,47.75,82.22,48.31Z" transform="translate(18.06 -1.43)"/><path class="cls-1" d="M91.07,49.51A28,28,0,0,1,102.57,46a3.36,3.36,0,0,1,3.15,1.49c.94,1.39-.29,3.82-1.76,4.68a4.6,4.6,0,0,1-1.71.65,26.4,26.4,0,0,1-7.48.09,7.61,7.61,0,0,0-1.6.16,49.32,49.32,0,0,1,4.27,3A7.76,7.76,0,0,1,100,59.2a2.73,2.73,0,0,1-2.93,3.86,7.63,7.63,0,0,1-5.3-3,13.61,13.61,0,0,1-2.14-4,3.9,3.9,0,0,0-.83-1.47,1.93,1.93,0,0,1-1-1.64c.1,0-.16-3.33-.14-3.36C88.31,48.31,89.53,49,91.07,49.51Z" transform="translate(18.06 -1.43)"/><path class="cls-1" d="M81.9,51.15a2.6,2.6,0,0,1-2.07,1.06,47.11,47.11,0,0,0-5.3.68,13.12,13.12,0,0,1-6.46-.53,4.37,4.37,0,0,1-1.87-2.84c.21-1.8,1-2.53,2.92-3a15.06,15.06,0,0,1,7.3.53c1.94.49,3.76,1.3,5.68,1.82A4.08,4.08,0,0,0,81.9,51.15Z" transform="translate(18.06 -1.43)"/><path class="cls-1" d="M88.34,54.77c.19,2.07.52,4.14.54,6.22a7.72,7.72,0,0,1-3,6.79c-.78.57-1.59,1-2.52.46-1.13-.72-2.1-1.52-2.07-3.14a16.33,16.33,0,0,1,2.39-7.42c.54-1,2.15-4,2.72-5C87.37,52.74,87.34,54.75,88.34,54.77Z" transform="translate(18.06 -1.43)"/><path class="cls-1" d="M85.53,53.58a41.29,41.29,0,0,1-5.3,5.52,14.32,14.32,0,0,0-1.59,1.62,12.91,12.91,0,0,1-3.82,2.61,3.3,3.3,0,0,1-3.13-.4,2.74,2.74,0,0,1-.41-2.68c.9-3.14,3.33-4.52,6-5.78,1.63-.78,3.43-1.21,4.92-2.29C82.91,53.1,84.52,53,85.53,53.58Z" transform="translate(18.06 -1.43)"/><g id="Eoo6VP.tif"><path class="cls-1" d="M92.06,49.51l0,.19a5.19,5.19,0,0,1-.79,2A10.36,10.36,0,0,1,89,54.18a20.87,20.87,0,0,1-2.26,1.59.2.2,0,0,1-.23,0,18,18,0,0,1-3-2.22,8.94,8.94,0,0,1-1.73-2.15,4.33,4.33,0,0,1-.62-2.27,3,3,0,0,1,1.57-2.63,2.83,2.83,0,0,1,1.13-.36l.06,0h.49l.28,0a2.5,2.5,0,0,1,1.57.83,5.22,5.22,0,0,1,.34.48c.08-.12.16-.26.25-.37a2.49,2.49,0,0,1,1.66-.94l.28,0h.49l.26,0A3,3,0,0,1,92,48.38c0,.18.07.37.11.55Z" transform="translate(18.06 -1.43)"/></g><path class="cls-1" d="M49.11,121.17a31.94,31.94,0,0,1-3.17-9.84,20.14,20.14,0,0,1-.07-3.3,2.42,2.42,0,0,1,1.87-2.34,2.6,2.6,0,0,1,2.75.66,9.88,9.88,0,0,1,2.92,5.83c.29,2.18-.44,7.5-.86,9.81.61-.17,1.58-3.76,1.68-4.08a11.08,11.08,0,0,1,5.13-6.7,5,5,0,0,1,4.16-.62,2.65,2.65,0,0,1,1.29,4c-1,1.54-2.48,2.55-3.72,3.83a21.35,21.35,0,0,1-4.59,4,3.31,3.31,0,0,0,2.16-.63c1.6-.92,3.37-.84,5.09-1.07a6.92,6.92,0,0,1,3.61.17,2.49,2.49,0,0,1,1.86,2.2,2.84,2.84,0,0,1-1.83,2.77,22.62,22.62,0,0,1-6.62,1.1c-1.28.11-2.58-.11-3.86,0a1.5,1.5,0,0,1-1.36-.45c.16-.5-1.89-.74-1.94-1.27.4-.22.11-.85-.27-1.12s0,0-.3-.33c-.87-.93-.26-1.53-1.87-1.45-.28-.29.3-.4,0,0C50.46,122.11,49.75,121,49.11,121.17Z" transform="translate(18.06 -1.43)"/><path class="cls-1" d="M55.34,127.58c4,.79,7.86,1.92,11.21,4.33A3.37,3.37,0,0,1,68.11,135c-.11,1.67-2.58,2.83-4.27,2.6a4.58,4.58,0,0,1-1.74-.54,26.34,26.34,0,0,1-6-4.54,7.43,7.43,0,0,0-1.35-.86,48.62,48.62,0,0,1,1.54,5,7.94,7.94,0,0,1,.07,4.05,2.73,2.73,0,0,1-4.69,1.23,7.66,7.66,0,0,1-2.3-5.66,13.57,13.57,0,0,1,.78-4.48,3.94,3.94,0,0,0,.26-1.66,1.94,1.94,0,0,1,.24-1.9c.08.07,1.93-2.72,2-2.73C53.91,124.93,54.44,126.24,55.34,127.58Z" transform="translate(18.06 -1.43)"/><path class="cls-1" d="M47.11,123.22a2.59,2.59,0,0,1-2.28-.45,50.6,50.6,0,0,0-4.6-2.73,13,13,0,0,1-4.76-4.39,4.41,4.41,0,0,1,.28-3.39c1.27-1.29,2.38-1.34,4.12-.53a15.16,15.16,0,0,1,5.43,4.91c1.22,1.59,2.15,3.34,3.34,4.93A4.19,4.19,0,0,0,47.11,123.22Z" transform="translate(18.06 -1.43)"/><path class="cls-1" d="M50,130c-1.12,1.76-2.14,3.59-3.4,5.24A7.75,7.75,0,0,1,40,138.75c-1,0-1.9-.15-2.26-1.19-.45-1.27-.72-2.49.3-3.75a16.31,16.31,0,0,1,6.45-4.37c1-.46,4.15-1.8,5.2-2.23C50.44,127.84,49.18,129.41,50,130Z" transform="translate(18.06 -1.43)"/><path class="cls-1" d="M48.47,127.37a41.2,41.2,0,0,1-7.58,1.07,15.8,15.8,0,0,0-2.25.31,13.06,13.06,0,0,1-4.62-.3,3.34,3.34,0,0,1-2.21-2.25,2.71,2.71,0,0,1,1.33-2.36c2.64-1.92,5.41-1.5,8.3-.85,1.76.4,3.44,1.16,5.28,1.23C46.71,125.38,48,126.28,48.47,127.37Z" transform="translate(18.06 -1.43)"/><g id="Eoo6VP.tif-2" data-name="Eoo6VP.tif"><path class="cls-1" d="M57.27,123.88l0,.2a5.1,5.1,0,0,1-.79,2,10.31,10.31,0,0,1-2.24,2.42A18.74,18.74,0,0,1,52,130.14a.19.19,0,0,1-.23,0,17.89,17.89,0,0,1-3-2.22A8.75,8.75,0,0,1,47,125.78a4.3,4.3,0,0,1-.61-2.27A3,3,0,0,1,48,120.88a2.82,2.82,0,0,1,1.14-.36l0,0h.49l.28,0a2.55,2.55,0,0,1,1.57.83c.13.15.23.32.35.48.08-.12.15-.25.24-.37a2.57,2.57,0,0,1,1.66-.94l.28,0h.49l.27,0a3,3,0,0,1,2.38,2.21,4.86,4.86,0,0,1,.11.55Z" transform="translate(18.06 -1.43)"/></g><path class="cls-1" d="M27.78,76a32,32,0,0,1-10.24-1.44,18.82,18.82,0,0,1-3-1.38,2.42,2.42,0,0,1-1.29-2.7A2.61,2.61,0,0,1,15,68.3a10,10,0,0,1,6.52-.09c2.09.69,6.57,3.68,8.46,5.06.11-.63-2.7-3.06-2.94-3.29a11.12,11.12,0,0,1-3.79-7.54,4.93,4.93,0,0,1,1.25-4,2.65,2.65,0,0,1,4.18.59c1,1.55,1.22,3.35,1.83,5a21.46,21.46,0,0,1,1.6,5.87,3.35,3.35,0,0,0,.37-2.22c-.13-1.84.72-3.4,1.26-5a6.74,6.74,0,0,1,1.73-3.17,2.47,2.47,0,0,1,2.79-.71A2.83,2.83,0,0,1,40,61.61a22.85,22.85,0,0,1-1.89,6.44c-.46,1.2-1.22,2.27-1.68,3.48a1.52,1.52,0,0,1-1,1c-.38-.37-1.49,1.37-2,1.19,0-.46-.71-.47-1.12-.25-.45.07,0,0-.43.13-1.22.37-1.49-.44-2.12,1.05-.38.12-.23-.45,0,0C29.22,75.2,27.88,75.35,27.78,76Z" transform="translate(18.06 -1.43)"/><path class="cls-1" d="M36.27,73.19C38.72,70,41.43,67,45.05,65a3.36,3.36,0,0,1,3.49,0c1.46.83,1.42,3.56.48,5a4.78,4.78,0,0,1-1.25,1.33,26.57,26.57,0,0,1-6.68,3.38,7.79,7.79,0,0,0-1.37.84,50.11,50.11,0,0,1,5.15.78A7.86,7.86,0,0,1,48.54,78a2.72,2.72,0,0,1-.94,4.75,7.61,7.61,0,0,1-6.09-.4,13.14,13.14,0,0,1-3.68-2.65,4.07,4.07,0,0,0-1.4-1,2,2,0,0,1-1.6-1c.1,0-1.6-2.92-1.6-3C33.26,73.33,34.66,73.42,36.27,73.19Z" transform="translate(18.06 -1.43)"/><path class="cls-1" d="M28.75,78.7a2.54,2.54,0,0,1-1.39,1.86,45.86,45.86,0,0,0-4.46,3,13.24,13.24,0,0,1-6,2.37,4.36,4.36,0,0,1-2.93-1.73c-.61-1.71-.17-2.74,1.32-3.94a15,15,0,0,1,6.79-2.75C24,77.06,26,77,27.94,76.6A4.12,4.12,0,0,0,28.75,78.7Z" transform="translate(18.06 -1.43)"/><path class="cls-1" d="M36.13,79.11c1.08,1.78,2.29,3.5,3.22,5.35a7.72,7.72,0,0,1,.27,7.43c-.45.86-1,1.65-2.06,1.52-1.33-.15-2.55-.43-3.24-1.9a16.23,16.23,0,0,1-1.12-7.72c0-1.13.18-4.51.26-5.64C34.36,77.72,35.22,79.54,36.13,79.11Z" transform="translate(18.06 -1.43)"/><path class="cls-1" d="M33.08,79.29a41.15,41.15,0,0,1-2.33,7.28A14.75,14.75,0,0,0,30,88.73a12.8,12.8,0,0,1-2.29,4,3.29,3.29,0,0,1-3,1,2.71,2.71,0,0,1-1.55-2.23c-.57-3.2,1-5.52,2.85-7.83,1.13-1.42,2.55-2.6,3.41-4.22C30.52,80,31.91,79.2,33.08,79.29Z" transform="translate(18.06 -1.43)"/><g id="Eoo6VP.tif-3" data-name="Eoo6VP.tif"><path class="cls-1" d="M38.06,75.7l0,.2a5,5,0,0,1-.79,2A10.56,10.56,0,0,1,35,80.38,20.87,20.87,0,0,1,32.74,82a.2.2,0,0,1-.23,0,17.49,17.49,0,0,1-3-2.22A8.57,8.57,0,0,1,27.8,77.6a4.39,4.39,0,0,1-.62-2.26,3,3,0,0,1,1.57-2.63,2.69,2.69,0,0,1,1.13-.37l.06,0h.49l.28.05a2.5,2.5,0,0,1,1.57.83c.13.15.23.32.34.47.08-.12.16-.25.25-.37a2.52,2.52,0,0,1,1.66-.93l.28-.05h.49l.27.05A3,3,0,0,1,38,74.58c0,.18.07.37.11.55Z" transform="translate(18.06 -1.43)"/></g><path class="cls-1" d="M117,94a32,32,0,0,1-10.24-1.44,18.42,18.42,0,0,1-3-1.38,2.41,2.41,0,0,1-1.29-2.7,2.59,2.59,0,0,1,1.79-2.19,10,10,0,0,1,6.52-.09c2.09.69,6.56,3.68,8.46,5.06.11-.63-2.7-3.06-3-3.29a11.07,11.07,0,0,1-3.78-7.54,5,5,0,0,1,1.24-4,2.66,2.66,0,0,1,4.19.59c.95,1.55,1.21,3.35,1.83,5a21.46,21.46,0,0,1,1.6,5.87,3.34,3.34,0,0,0,.36-2.22c-.12-1.84.72-3.4,1.27-5a6.81,6.81,0,0,1,1.72-3.17,2.48,2.48,0,0,1,2.79-.71,2.8,2.8,0,0,1,1.69,2.85A22.52,22.52,0,0,1,127.3,86c-.46,1.2-1.22,2.27-1.67,3.48a1.52,1.52,0,0,1-1,1c-.38-.37-1.5,1.37-2,1.19,0-.46-.72-.47-1.12-.25s0,0-.43.13c-1.22.37-1.49-.44-2.13,1.05-.38.12-.23-.45,0,0C118.42,93.14,117.08,93.29,117,94Z" transform="translate(18.06 -1.43)"/><path class="cls-1" d="M125.47,91.13c2.45-3.24,5.16-6.23,8.79-8.19a3.36,3.36,0,0,1,3.49,0c1.45.83,1.41,3.56.47,5A4.64,4.64,0,0,1,137,89.2a26.34,26.34,0,0,1-6.67,3.38,7.79,7.79,0,0,0-1.37.84,49.9,49.9,0,0,1,5.14.78,7.94,7.94,0,0,1,3.68,1.71,2.73,2.73,0,0,1-.94,4.75,7.61,7.61,0,0,1-6.09-.4A13.34,13.34,0,0,1,127,97.61a4.13,4.13,0,0,0-1.39-1,1.94,1.94,0,0,1-1.6-1c.09,0-1.61-2.92-1.6-3C122.47,91.27,123.87,91.36,125.47,91.13Z" transform="translate(18.06 -1.43)"/><path class="cls-1" d="M118,96.64a2.58,2.58,0,0,1-1.4,1.86,48.43,48.43,0,0,0-4.46,3,13.19,13.19,0,0,1-6,2.37,4.39,4.39,0,0,1-2.93-1.73c-.6-1.71-.17-2.74,1.33-3.94a15,15,0,0,1,6.78-2.75c2-.4,4-.48,5.9-.86A4,4,0,0,0,118,96.64Z" transform="translate(18.06 -1.43)"/><path class="cls-1" d="M125.33,97.05c1.09,1.78,2.29,3.5,3.23,5.35a7.72,7.72,0,0,1,.26,7.43c-.45.86-1,1.65-2,1.52-1.34-.15-2.56-.43-3.24-1.9a16.36,16.36,0,0,1-1.13-7.72c0-1.13.19-4.51.26-5.64C123.57,95.66,124.43,97.48,125.33,97.05Z" transform="translate(18.06 -1.43)"/><path class="cls-1" d="M122.29,97.23a41.18,41.18,0,0,1-2.34,7.28,14.75,14.75,0,0,0-.71,2.16,13,13,0,0,1-2.28,4,3.31,3.31,0,0,1-3,1,2.72,2.72,0,0,1-1.54-2.23c-.58-3.2,1-5.52,2.85-7.83,1.13-1.42,2.54-2.6,3.4-4.22C119.72,98,121.12,97.14,122.29,97.23Z" transform="translate(18.06 -1.43)"/><g id="Eoo6VP.tif-4" data-name="Eoo6VP.tif"><path class="cls-1" d="M127.26,93.64l0,.2a5,5,0,0,1-.79,2,10.74,10.74,0,0,1-2.23,2.43,21,21,0,0,1-2.27,1.59.18.18,0,0,1-.22,0,18,18,0,0,1-3-2.22A8.79,8.79,0,0,1,117,95.54a4.38,4.38,0,0,1-.61-2.26A3,3,0,0,1,118,90.64a2.83,2.83,0,0,1,1.13-.36l.06,0h.49l.28,0a2.55,2.55,0,0,1,1.57.83c.12.15.23.32.34.47a4,4,0,0,1,.25-.37,2.52,2.52,0,0,1,1.65-.93l.28,0h.49l.27,0a3,3,0,0,1,2.38,2.21,3.57,3.57,0,0,1,.11.55Z" transform="translate(18.06 -1.43)"/></g><path class="cls-1" d="M-3.5,115.57a32.27,32.27,0,0,1-10.24-1.44,19.74,19.74,0,0,1-3-1.38,2.42,2.42,0,0,1-1.29-2.7,2.6,2.6,0,0,1,1.79-2.19,10,10,0,0,1,6.52-.09c2.09.69,6.57,3.67,8.46,5.06.11-.63-2.7-3.07-2.94-3.29A11.08,11.08,0,0,1-8,102a5,5,0,0,1,1.25-4,2.66,2.66,0,0,1,4.18.59c1,1.56,1.22,3.35,1.83,5a21.63,21.63,0,0,1,1.6,5.88,3.36,3.36,0,0,0,.37-2.22c-.13-1.85.71-3.4,1.26-5A6.81,6.81,0,0,1,4.22,99,2.48,2.48,0,0,1,7,98.32a2.83,2.83,0,0,1,1.69,2.85,22.64,22.64,0,0,1-1.9,6.44c-.45,1.19-1.22,2.27-1.67,3.48a1.49,1.49,0,0,1-1,1c-.38-.36-1.49,1.38-2,1.2,0-.46-.71-.47-1.12-.25-.45.06,0,0-.43.13-1.22.37-1.49-.44-2.13,1-.38.13-.22-.44,0,0C-2.07,114.76-3.41,114.9-3.5,115.57Z" transform="translate(18.06 -1.43)"/><path class="cls-1" d="M5,112.75c2.46-3.25,5.16-6.23,8.79-8.2a3.38,3.38,0,0,1,3.49,0c1.45.83,1.42,3.56.48,5a4.93,4.93,0,0,1-1.25,1.33,26.57,26.57,0,0,1-6.68,3.38,7.79,7.79,0,0,0-1.37.84,50.11,50.11,0,0,1,5.15.78,7.85,7.85,0,0,1,3.67,1.7,2.73,2.73,0,0,1-.94,4.76,7.65,7.65,0,0,1-6.09-.4,13.37,13.37,0,0,1-3.69-2.66,4,4,0,0,0-1.39-1,2,2,0,0,1-1.6-1c.09,0-1.6-2.91-1.6-3C2,112.89,3.38,113,5,112.75Z" transform="translate(18.06 -1.43)"/><path class="cls-1" d="M-2.53,118.25a2.58,2.58,0,0,1-1.39,1.87,45.86,45.86,0,0,0-4.46,2.95,13.28,13.28,0,0,1-6,2.37,4.41,4.41,0,0,1-2.93-1.74c-.61-1.71-.17-2.73,1.32-3.94A15.1,15.1,0,0,1-9.23,117c2-.41,3.94-.48,5.89-.86A4.05,4.05,0,0,0-2.53,118.25Z" transform="translate(18.06 -1.43)"/><path class="cls-1" d="M4.85,118.67c1.08,1.78,2.28,3.5,3.22,5.35a7.72,7.72,0,0,1,.27,7.43c-.45.86-1,1.65-2.06,1.52-1.34-.15-2.56-.44-3.24-1.91a16.17,16.17,0,0,1-1.12-7.71c0-1.13.18-4.51.25-5.65C3.08,117.28,3.94,119.1,4.85,118.67Z" transform="translate(18.06 -1.43)"/><path class="cls-1" d="M1.8,118.85a41.42,41.42,0,0,1-2.33,7.28,13.65,13.65,0,0,0-.71,2.16,12.8,12.8,0,0,1-2.29,4,3.3,3.3,0,0,1-3,1,2.75,2.75,0,0,1-1.54-2.23c-.58-3.21,1-5.52,2.85-7.84,1.13-1.41,2.54-2.59,3.41-4.21C-.76,119.56.63,118.76,1.8,118.85Z" transform="translate(18.06 -1.43)"/><g id="Eoo6VP.tif-5" data-name="Eoo6VP.tif"><path class="cls-1" d="M6.78,115.26l0,.2a5.11,5.11,0,0,1-.8,2.05,10.06,10.06,0,0,1-2.23,2.42,18.85,18.85,0,0,1-2.27,1.59.18.18,0,0,1-.22,0,18,18,0,0,1-3-2.22,8.75,8.75,0,0,1-1.72-2.15,4.3,4.3,0,0,1-.62-2.26,3,3,0,0,1,1.57-2.64,2.83,2.83,0,0,1,1.13-.36l.06,0h.49l.28,0a2.58,2.58,0,0,1,1.57.83,5.22,5.22,0,0,1,.34.48c.08-.12.16-.25.25-.37a2.57,2.57,0,0,1,1.66-.94l.28,0H4l.27.05a3,3,0,0,1,2.39,2.21c0,.18.07.36.11.55Z" transform="translate(18.06 -1.43)"/></g><path class="cls-1" d="M82.71,160.19a32,32,0,0,1-8.56-5.8,19.27,19.27,0,0,1-2.09-2.56,2.42,2.42,0,0,1,0-3,2.58,2.58,0,0,1,2.57-1.18,9.92,9.92,0,0,1,5.9,2.79c1.57,1.54,4.27,6.19,5.37,8.26.37-.51-1.08-3.94-1.2-4.25a11,11,0,0,1-.08-8.43A4.94,4.94,0,0,1,87.54,143,2.65,2.65,0,0,1,91,145.34c.18,1.82-.38,3.54-.57,5.31a21.69,21.69,0,0,1-1.14,6,3.35,3.35,0,0,0,1.3-1.83c.7-1.71,2.14-2.74,3.36-4a6.78,6.78,0,0,1,2.94-2.08,2.46,2.46,0,0,1,2.82.59,2.83,2.83,0,0,1,.27,3.3,22.75,22.75,0,0,1-4.54,5c-.94.87-2.09,1.5-3,2.39a1.51,1.51,0,0,1-1.35.48c-.19-.49-2,.57-2.31.19.18-.42-.44-.73-.9-.71-.43-.14,0,0-.44-.07-1.26-.21-1.15-1.05-2.37,0-.4-.05,0-.5,0,0C84.35,160.09,83.09,159.63,82.71,160.19Z" transform="translate(18.06 -1.43)"/><path class="cls-1" d="M91.57,161.39a27.94,27.94,0,0,1,11.5-3.49,3.36,3.36,0,0,1,3.15,1.49c.94,1.39-.3,3.82-1.77,4.68a4.56,4.56,0,0,1-1.7.65,26.47,26.47,0,0,1-7.49.09,7.73,7.73,0,0,0-1.6.16,48.88,48.88,0,0,1,4.28,3,7.92,7.92,0,0,1,2.55,3.15,2.73,2.73,0,0,1-2.94,3.86,7.63,7.63,0,0,1-5.29-3,13.39,13.39,0,0,1-2.14-4,4,4,0,0,0-.83-1.47,2,2,0,0,1-1-1.64c.1,0-.15-3.33-.14-3.36C88.81,160.19,90,160.89,91.57,161.39Z" transform="translate(18.06 -1.43)"/><path class="cls-1" d="M82.4,163a2.6,2.6,0,0,1-2.07,1.06,47.28,47.28,0,0,0-5.31.68,13.13,13.13,0,0,1-6.46-.53,4.35,4.35,0,0,1-1.86-2.84c.2-1.8,1-2.53,2.92-3a15.07,15.07,0,0,1,7.3.53c1.94.49,3.75,1.3,5.67,1.82A4.07,4.07,0,0,0,82.4,163Z" transform="translate(18.06 -1.43)"/><path class="cls-1" d="M88.84,166.65c.19,2.07.51,4.14.54,6.22a7.77,7.77,0,0,1-3,6.79c-.78.57-1.59,1.05-2.52.46-1.13-.73-2.1-1.52-2.07-3.14a16.32,16.32,0,0,1,2.38-7.42c.54-1,2.16-4,2.72-5C87.86,164.62,87.84,166.63,88.84,166.65Z" transform="translate(18.06 -1.43)"/><path class="cls-1" d="M86,165.46a40.67,40.67,0,0,1-5.3,5.52,14.32,14.32,0,0,0-1.59,1.62,12.65,12.65,0,0,1-3.82,2.61,3.28,3.28,0,0,1-3.13-.41,2.69,2.69,0,0,1-.4-2.67c.89-3.14,3.33-4.52,6-5.78,1.63-.78,3.42-1.21,4.91-2.29C83.41,165,85,164.87,86,165.46Z" transform="translate(18.06 -1.43)"/><g id="Eoo6VP.tif-6" data-name="Eoo6VP.tif"><path class="cls-1" d="M92.55,161.38l0,.2a5,5,0,0,1-.79,2,10.53,10.53,0,0,1-2.23,2.43,21,21,0,0,1-2.27,1.59.18.18,0,0,1-.22,0,18.69,18.69,0,0,1-3-2.22,9.18,9.18,0,0,1-1.73-2.15,4.44,4.44,0,0,1-.61-2.27,3,3,0,0,1,1.57-2.63,2.83,2.83,0,0,1,1.13-.36l.06,0h.49l.28,0a2.55,2.55,0,0,1,1.57.83c.12.15.23.32.34.48.08-.12.15-.26.24-.37a2.51,2.51,0,0,1,1.66-.94l.28,0h.49l.27,0a3,3,0,0,1,2.38,2.21,3.57,3.57,0,0,1,.11.55Z" transform="translate(18.06 -1.43)"/></g><path class="cls-1" d="M145.28,62.46A32.27,32.27,0,0,1,135,61a20.76,20.76,0,0,1-3-1.38,2.42,2.42,0,0,1-1.29-2.7,2.58,2.58,0,0,1,1.79-2.19,9.92,9.92,0,0,1,6.52-.09c2.09.69,6.57,3.67,8.46,5.06.11-.63-2.7-3.07-2.94-3.29a11.1,11.1,0,0,1-3.79-7.54,5,5,0,0,1,1.25-4,2.66,2.66,0,0,1,4.18.59c1,1.56,1.22,3.35,1.83,5a21.63,21.63,0,0,1,1.6,5.88,3.36,3.36,0,0,0,.37-2.22c-.13-1.85.71-3.41,1.26-5A6.81,6.81,0,0,1,153,45.92a2.45,2.45,0,0,1,2.79-.71,2.82,2.82,0,0,1,1.7,2.85,22.64,22.64,0,0,1-1.9,6.44c-.46,1.19-1.22,2.26-1.67,3.48a1.49,1.49,0,0,1-1,1c-.38-.36-1.49,1.38-2,1.2,0-.46-.71-.47-1.12-.25-.45.06,0,0-.43.13-1.22.37-1.49-.44-2.13,1-.38.13-.22-.44,0,0C146.71,61.65,145.37,61.79,145.28,62.46Z" transform="translate(18.06 -1.43)"/><path class="cls-1" d="M153.76,59.64c2.46-3.25,5.16-6.23,8.79-8.2a3.38,3.38,0,0,1,3.49,0c1.45.83,1.42,3.56.48,5a4.75,4.75,0,0,1-1.25,1.32,26.28,26.28,0,0,1-6.68,3.39,7.22,7.22,0,0,0-1.37.84,49.48,49.48,0,0,1,5.14.78,7.88,7.88,0,0,1,3.68,1.7,2.73,2.73,0,0,1-.94,4.76,7.65,7.65,0,0,1-6.09-.4,13.37,13.37,0,0,1-3.69-2.66,4,4,0,0,0-1.39-1,2,2,0,0,1-1.6-1c.09,0-1.6-2.91-1.6-3C150.76,59.78,152.16,59.87,153.76,59.64Z" transform="translate(18.06 -1.43)"/><path class="cls-1" d="M146.25,65.14A2.58,2.58,0,0,1,144.86,67,45.86,45.86,0,0,0,140.4,70a13.28,13.28,0,0,1-6,2.37,4.41,4.41,0,0,1-2.93-1.74c-.61-1.71-.17-2.73,1.32-3.94a15.11,15.11,0,0,1,6.78-2.74c2-.41,4-.48,5.9-.86A4.05,4.05,0,0,0,146.25,65.14Z" transform="translate(18.06 -1.43)"/><path class="cls-1" d="M153.63,65.56c1.08,1.78,2.28,3.5,3.22,5.35a7.72,7.72,0,0,1,.27,7.43c-.45.86-1,1.65-2.06,1.52-1.34-.15-2.56-.44-3.24-1.91a16.17,16.17,0,0,1-1.12-7.71c0-1.13.18-4.51.25-5.65C151.86,64.17,152.72,66,153.63,65.56Z" transform="translate(18.06 -1.43)"/><path class="cls-1" d="M150.58,65.74A41.42,41.42,0,0,1,148.25,73a13.65,13.65,0,0,0-.71,2.16,13,13,0,0,1-2.29,4,3.36,3.36,0,0,1-3,1A2.75,2.75,0,0,1,140.72,78c-.58-3.21,1-5.52,2.85-7.84,1.13-1.41,2.54-2.59,3.41-4.21C148,66.45,149.41,65.65,150.58,65.74Z" transform="translate(18.06 -1.43)"/><g id="Eoo6VP.tif-7" data-name="Eoo6VP.tif"><path class="cls-1" d="M155.56,62.15a1.2,1.2,0,0,0,0,.2,5.11,5.11,0,0,1-.8,2.05,10.06,10.06,0,0,1-2.23,2.42,18.85,18.85,0,0,1-2.27,1.59.18.18,0,0,1-.22,0,18,18,0,0,1-3-2.22,8.94,8.94,0,0,1-1.72-2.15,4.33,4.33,0,0,1-.62-2.27,3,3,0,0,1,1.57-2.63,2.83,2.83,0,0,1,1.13-.36l.06,0h.49l.28,0a2.58,2.58,0,0,1,1.57.83,5.22,5.22,0,0,1,.34.48c.08-.12.16-.25.25-.37a2.57,2.57,0,0,1,1.66-.94l.28,0h.48l.27,0A3,3,0,0,1,155.45,61c.05.18.07.36.11.55Z" transform="translate(18.06 -1.43)"/></g></g><g id="RH54K8"><path class="cls-5" d="M78.72,26.08V21.61a10.09,10.09,0,0,0,6.86-4.29,10.18,10.18,0,0,0,0-11A10.25,10.25,0,0,0,76,2.1a10,10,0,0,0-8.39,9.26" transform="translate(18.06 -1.43)"/><path class="cls-5" d="M25.47,46.42" transform="translate(18.06 -1.43)"/></g><path class="cls-5" d="M78,26.55A73.24,73.24,0,0,1,151.27,99.8" transform="translate(18.06 -1.43)"/><g class="cls-6"><rect class="cls-2" x="31.28" y="29.51" width="125.67" height="111.88"/><path class="cls-7" d="M82.22,48.31a32.22,32.22,0,0,1-8.57-5.8A19.21,19.21,0,0,1,71.57,40a2.42,2.42,0,0,1,0-3,2.59,2.59,0,0,1,2.58-1.18,9.9,9.9,0,0,1,5.89,2.79c1.57,1.54,4.28,6.19,5.37,8.26.37-.51-1.07-3.94-1.19-4.25a11.09,11.09,0,0,1-.09-8.43A5,5,0,0,1,87,31.09a2.66,2.66,0,0,1,3.5,2.37c.17,1.82-.38,3.54-.57,5.31a21.36,21.36,0,0,1-1.15,6,3.33,3.33,0,0,0,1.31-1.83c.7-1.71,2.14-2.74,3.35-4a6.75,6.75,0,0,1,3-2.08,2.46,2.46,0,0,1,2.82.59,2.82,2.82,0,0,1,.26,3.3,22.7,22.7,0,0,1-4.53,5c-.94.87-2.1,1.5-3,2.39a1.5,1.5,0,0,1-1.35.48c-.18-.49-1.94.57-2.31.19.19-.42-.43-.73-.89-.71-.44-.14,0,0-.45-.07-1.26-.21-1.14-1-2.37,0-.4,0,0-.5,0,0C83.86,48.21,82.59,47.75,82.22,48.31Z" transform="translate(18.06 -1.43)"/><path class="cls-7" d="M91.07,49.51A28,28,0,0,1,102.57,46a3.36,3.36,0,0,1,3.15,1.49c.94,1.39-.29,3.82-1.76,4.68a4.6,4.6,0,0,1-1.71.65,26.4,26.4,0,0,1-7.48.09,7.61,7.61,0,0,0-1.6.16,49.32,49.32,0,0,1,4.27,3A7.76,7.76,0,0,1,100,59.2a2.73,2.73,0,0,1-2.93,3.86,7.63,7.63,0,0,1-5.3-3,13.61,13.61,0,0,1-2.14-4,3.9,3.9,0,0,0-.83-1.47,1.93,1.93,0,0,1-1-1.64c.1,0-.16-3.33-.14-3.36C88.31,48.31,89.53,49,91.07,49.51Z" transform="translate(18.06 -1.43)"/><path class="cls-8" d="M81.9,51.15a2.6,2.6,0,0,1-2.07,1.06,47.11,47.11,0,0,0-5.3.68,13.12,13.12,0,0,1-6.46-.53,4.37,4.37,0,0,1-1.87-2.84c.21-1.8,1-2.53,2.92-3a15.06,15.06,0,0,1,7.3.53c1.94.49,3.76,1.3,5.68,1.82A4.08,4.08,0,0,0,81.9,51.15Z" transform="translate(18.06 -1.43)"/><path class="cls-8" d="M88.34,54.77c.19,2.07.52,4.14.54,6.22a7.72,7.72,0,0,1-3,6.79c-.78.57-1.59,1-2.52.46-1.13-.72-2.1-1.52-2.07-3.14a16.33,16.33,0,0,1,2.39-7.42c.54-1,2.15-4,2.72-5C87.37,52.74,87.34,54.75,88.34,54.77Z" transform="translate(18.06 -1.43)"/><path class="cls-8" d="M85.53,53.58a41.29,41.29,0,0,1-5.3,5.52,14.32,14.32,0,0,0-1.59,1.62,12.91,12.91,0,0,1-3.82,2.61,3.3,3.3,0,0,1-3.13-.4,2.74,2.74,0,0,1-.41-2.68c.9-3.14,3.33-4.52,6-5.78,1.63-.78,3.43-1.21,4.92-2.29C82.91,53.1,84.52,53,85.53,53.58Z" transform="translate(18.06 -1.43)"/><g id="Eoo6VP.tif-8" data-name="Eoo6VP.tif"><path class="cls-9" d="M92.06,49.51l0,.19a5.19,5.19,0,0,1-.79,2A10.36,10.36,0,0,1,89,54.18a20.87,20.87,0,0,1-2.26,1.59.2.2,0,0,1-.23,0,18,18,0,0,1-3-2.22,8.94,8.94,0,0,1-1.73-2.15,4.33,4.33,0,0,1-.62-2.27,3,3,0,0,1,1.57-2.63,2.83,2.83,0,0,1,1.13-.36l.06,0h.49l.28,0a2.5,2.5,0,0,1,1.57.83,5.22,5.22,0,0,1,.34.48c.08-.12.16-.26.25-.37a2.49,2.49,0,0,1,1.66-.94l.28,0h.49l.26,0A3,3,0,0,1,92,48.38c0,.18.07.37.11.55Z" transform="translate(18.06 -1.43)"/></g><path class="cls-7" d="M49.11,121.17a31.94,31.94,0,0,1-3.17-9.84,20.14,20.14,0,0,1-.07-3.3,2.42,2.42,0,0,1,1.87-2.34,2.6,2.6,0,0,1,2.75.66,9.88,9.88,0,0,1,2.92,5.83c.29,2.18-.44,7.5-.86,9.81.61-.17,1.58-3.76,1.68-4.08a11.08,11.08,0,0,1,5.13-6.7,5,5,0,0,1,4.16-.62,2.65,2.65,0,0,1,1.29,4c-1,1.54-2.48,2.55-3.72,3.83a21.35,21.35,0,0,1-4.59,4,3.31,3.31,0,0,0,2.16-.63c1.6-.92,3.37-.84,5.09-1.07a6.92,6.92,0,0,1,3.61.17,2.49,2.49,0,0,1,1.86,2.2,2.84,2.84,0,0,1-1.83,2.77,22.62,22.62,0,0,1-6.62,1.1c-1.28.11-2.58-.11-3.86,0a1.5,1.5,0,0,1-1.36-.45c.16-.5-1.89-.74-1.94-1.27.4-.22.11-.85-.27-1.12s0,0-.3-.33c-.87-.93-.26-1.53-1.87-1.45-.28-.29.3-.4,0,0C50.46,122.11,49.75,121,49.11,121.17Z" transform="translate(18.06 -1.43)"/><path class="cls-7" d="M55.34,127.58c4,.79,7.86,1.92,11.21,4.33A3.37,3.37,0,0,1,68.11,135c-.11,1.67-2.58,2.83-4.27,2.6a4.58,4.58,0,0,1-1.74-.54,26.34,26.34,0,0,1-6-4.54,7.43,7.43,0,0,0-1.35-.86,48.62,48.62,0,0,1,1.54,5,7.94,7.94,0,0,1,.07,4.05,2.73,2.73,0,0,1-4.69,1.23,7.66,7.66,0,0,1-2.3-5.66,13.57,13.57,0,0,1,.78-4.48,3.94,3.94,0,0,0,.26-1.66,1.94,1.94,0,0,1,.24-1.9c.08.07,1.93-2.72,2-2.73C53.91,124.93,54.44,126.24,55.34,127.58Z" transform="translate(18.06 -1.43)"/><path class="cls-8" d="M47.11,123.22a2.59,2.59,0,0,1-2.28-.45,50.6,50.6,0,0,0-4.6-2.73,13,13,0,0,1-4.76-4.39,4.41,4.41,0,0,1,.28-3.39c1.27-1.29,2.38-1.34,4.12-.53a15.16,15.16,0,0,1,5.43,4.91c1.22,1.59,2.15,3.34,3.34,4.93A4.19,4.19,0,0,0,47.11,123.22Z" transform="translate(18.06 -1.43)"/><path class="cls-8" d="M50,130c-1.12,1.76-2.14,3.59-3.4,5.24A7.75,7.75,0,0,1,40,138.75c-1,0-1.9-.15-2.26-1.19-.45-1.27-.72-2.49.3-3.75a16.31,16.31,0,0,1,6.45-4.37c1-.46,4.15-1.8,5.2-2.23C50.44,127.84,49.18,129.41,50,130Z" transform="translate(18.06 -1.43)"/><path class="cls-8" d="M48.47,127.37a41.2,41.2,0,0,1-7.58,1.07,15.8,15.8,0,0,0-2.25.31,13.06,13.06,0,0,1-4.62-.3,3.34,3.34,0,0,1-2.21-2.25,2.71,2.71,0,0,1,1.33-2.36c2.64-1.92,5.41-1.5,8.3-.85,1.76.4,3.44,1.16,5.28,1.23C46.71,125.38,48,126.28,48.47,127.37Z" transform="translate(18.06 -1.43)"/><g id="Eoo6VP.tif-9" data-name="Eoo6VP.tif"><path class="cls-9" d="M57.27,123.88l0,.2a5.1,5.1,0,0,1-.79,2,10.31,10.31,0,0,1-2.24,2.42A18.74,18.74,0,0,1,52,130.14a.19.19,0,0,1-.23,0,17.89,17.89,0,0,1-3-2.22A8.75,8.75,0,0,1,47,125.78a4.3,4.3,0,0,1-.61-2.27A3,3,0,0,1,48,120.88a2.82,2.82,0,0,1,1.14-.36l0,0h.49l.28,0a2.55,2.55,0,0,1,1.57.83c.13.15.23.32.35.48.08-.12.15-.25.24-.37a2.57,2.57,0,0,1,1.66-.94l.28,0h.49l.27,0a3,3,0,0,1,2.38,2.21,4.86,4.86,0,0,1,.11.55Z" transform="translate(18.06 -1.43)"/></g><path class="cls-7" d="M27.78,76a32,32,0,0,1-10.24-1.44,18.82,18.82,0,0,1-3-1.38,2.42,2.42,0,0,1-1.29-2.7A2.61,2.61,0,0,1,15,68.3a10,10,0,0,1,6.52-.09c2.09.69,6.57,3.68,8.46,5.06.11-.63-2.7-3.06-2.94-3.29a11.12,11.12,0,0,1-3.79-7.54,4.93,4.93,0,0,1,1.25-4,2.65,2.65,0,0,1,4.18.59c1,1.55,1.22,3.35,1.83,5a21.46,21.46,0,0,1,1.6,5.87,3.35,3.35,0,0,0,.37-2.22c-.13-1.84.72-3.4,1.26-5a6.74,6.74,0,0,1,1.73-3.17,2.47,2.47,0,0,1,2.79-.71A2.83,2.83,0,0,1,40,61.61a22.85,22.85,0,0,1-1.89,6.44c-.46,1.2-1.22,2.27-1.68,3.48a1.52,1.52,0,0,1-1,1c-.38-.37-1.49,1.37-2,1.19,0-.46-.71-.47-1.12-.25-.45.07,0,0-.43.13-1.22.37-1.49-.44-2.12,1.05-.38.12-.23-.45,0,0C29.22,75.2,27.88,75.35,27.78,76Z" transform="translate(18.06 -1.43)"/><path class="cls-7" d="M36.27,73.19C38.72,70,41.43,67,45.05,65a3.36,3.36,0,0,1,3.49,0c1.46.83,1.42,3.56.48,5a4.78,4.78,0,0,1-1.25,1.33,26.57,26.57,0,0,1-6.68,3.38,7.79,7.79,0,0,0-1.37.84,50.11,50.11,0,0,1,5.15.78A7.86,7.86,0,0,1,48.54,78a2.72,2.72,0,0,1-.94,4.75,7.61,7.61,0,0,1-6.09-.4,13.14,13.14,0,0,1-3.68-2.65,4.07,4.07,0,0,0-1.4-1,2,2,0,0,1-1.6-1c.1,0-1.6-2.92-1.6-3C33.26,73.33,34.66,73.42,36.27,73.19Z" transform="translate(18.06 -1.43)"/><path class="cls-8" d="M28.75,78.7a2.54,2.54,0,0,1-1.39,1.86,45.86,45.86,0,0,0-4.46,3,13.24,13.24,0,0,1-6,2.37,4.36,4.36,0,0,1-2.93-1.73c-.61-1.71-.17-2.74,1.32-3.94a15,15,0,0,1,6.79-2.75C24,77.06,26,77,27.94,76.6A4.12,4.12,0,0,0,28.75,78.7Z" transform="translate(18.06 -1.43)"/><path class="cls-8" d="M36.13,79.11c1.08,1.78,2.29,3.5,3.22,5.35a7.72,7.72,0,0,1,.27,7.43c-.45.86-1,1.65-2.06,1.52-1.33-.15-2.55-.43-3.24-1.9a16.23,16.23,0,0,1-1.12-7.72c0-1.13.18-4.51.26-5.64C34.36,77.72,35.22,79.54,36.13,79.11Z" transform="translate(18.06 -1.43)"/><path class="cls-8" d="M33.08,79.29a41.15,41.15,0,0,1-2.33,7.28A14.75,14.75,0,0,0,30,88.73a12.8,12.8,0,0,1-2.29,4,3.29,3.29,0,0,1-3,1,2.71,2.71,0,0,1-1.55-2.23c-.57-3.2,1-5.52,2.85-7.83,1.13-1.42,2.55-2.6,3.41-4.22C30.52,80,31.91,79.2,33.08,79.29Z" transform="translate(18.06 -1.43)"/><g id="Eoo6VP.tif-10" data-name="Eoo6VP.tif"><path class="cls-9" d="M38.06,75.7l0,.2a5,5,0,0,1-.79,2A10.56,10.56,0,0,1,35,80.38,20.87,20.87,0,0,1,32.74,82a.2.2,0,0,1-.23,0,17.49,17.49,0,0,1-3-2.22A8.57,8.57,0,0,1,27.8,77.6a4.39,4.39,0,0,1-.62-2.26,3,3,0,0,1,1.57-2.63,2.69,2.69,0,0,1,1.13-.37l.06,0h.49l.28.05a2.5,2.5,0,0,1,1.57.83c.13.15.23.32.34.47.08-.12.16-.25.25-.37a2.52,2.52,0,0,1,1.66-.93l.28-.05h.49l.27.05A3,3,0,0,1,38,74.58c0,.18.07.37.11.55Z" transform="translate(18.06 -1.43)"/></g><path class="cls-7" d="M117,94a32,32,0,0,1-10.24-1.44,18.42,18.42,0,0,1-3-1.38,2.41,2.41,0,0,1-1.29-2.7,2.59,2.59,0,0,1,1.79-2.19,10,10,0,0,1,6.52-.09c2.09.69,6.56,3.68,8.46,5.06.11-.63-2.7-3.06-3-3.29a11.07,11.07,0,0,1-3.78-7.54,5,5,0,0,1,1.24-4,2.66,2.66,0,0,1,4.19.59c.95,1.55,1.21,3.35,1.83,5a21.46,21.46,0,0,1,1.6,5.87,3.34,3.34,0,0,0,.36-2.22c-.12-1.84.72-3.4,1.27-5a6.81,6.81,0,0,1,1.72-3.17,2.48,2.48,0,0,1,2.79-.71,2.8,2.8,0,0,1,1.69,2.85A22.52,22.52,0,0,1,127.3,86c-.46,1.2-1.22,2.27-1.67,3.48a1.52,1.52,0,0,1-1,1c-.38-.37-1.5,1.37-2,1.19,0-.46-.72-.47-1.12-.25s0,0-.43.13c-1.22.37-1.49-.44-2.13,1.05-.38.12-.23-.45,0,0C118.42,93.14,117.08,93.29,117,94Z" transform="translate(18.06 -1.43)"/><path class="cls-7" d="M125.47,91.13c2.45-3.24,5.16-6.23,8.79-8.19a3.36,3.36,0,0,1,3.49,0c1.45.83,1.41,3.56.47,5A4.64,4.64,0,0,1,137,89.2a26.34,26.34,0,0,1-6.67,3.38,7.79,7.79,0,0,0-1.37.84,49.9,49.9,0,0,1,5.14.78,7.94,7.94,0,0,1,3.68,1.71,2.73,2.73,0,0,1-.94,4.75,7.61,7.61,0,0,1-6.09-.4A13.34,13.34,0,0,1,127,97.61a4.13,4.13,0,0,0-1.39-1,1.94,1.94,0,0,1-1.6-1c.09,0-1.61-2.92-1.6-3C122.47,91.27,123.87,91.36,125.47,91.13Z" transform="translate(18.06 -1.43)"/><path class="cls-8" d="M118,96.64a2.58,2.58,0,0,1-1.4,1.86,48.43,48.43,0,0,0-4.46,3,13.19,13.19,0,0,1-6,2.37,4.39,4.39,0,0,1-2.93-1.73c-.6-1.71-.17-2.74,1.33-3.94a15,15,0,0,1,6.78-2.75c2-.4,4-.48,5.9-.86A4,4,0,0,0,118,96.64Z" transform="translate(18.06 -1.43)"/><path class="cls-8" d="M125.33,97.05c1.09,1.78,2.29,3.5,3.23,5.35a7.72,7.72,0,0,1,.26,7.43c-.45.86-1,1.65-2,1.52-1.34-.15-2.56-.43-3.24-1.9a16.36,16.36,0,0,1-1.13-7.72c0-1.13.19-4.51.26-5.64C123.57,95.66,124.43,97.48,125.33,97.05Z" transform="translate(18.06 -1.43)"/><path class="cls-8" d="M122.29,97.23a41.18,41.18,0,0,1-2.34,7.28,14.75,14.75,0,0,0-.71,2.16,13,13,0,0,1-2.28,4,3.31,3.31,0,0,1-3,1,2.72,2.72,0,0,1-1.54-2.23c-.58-3.2,1-5.52,2.85-7.83,1.13-1.42,2.54-2.6,3.4-4.22C119.72,98,121.12,97.14,122.29,97.23Z" transform="translate(18.06 -1.43)"/><g id="Eoo6VP.tif-11" data-name="Eoo6VP.tif"><path class="cls-9" d="M127.26,93.64l0,.2a5,5,0,0,1-.79,2,10.74,10.74,0,0,1-2.23,2.43,21,21,0,0,1-2.27,1.59.18.18,0,0,1-.22,0,18,18,0,0,1-3-2.22A8.79,8.79,0,0,1,117,95.54a4.38,4.38,0,0,1-.61-2.26A3,3,0,0,1,118,90.64a2.83,2.83,0,0,1,1.13-.36l.06,0h.49l.28,0a2.55,2.55,0,0,1,1.57.83c.12.15.23.32.34.47a4,4,0,0,1,.25-.37,2.52,2.52,0,0,1,1.65-.93l.28,0h.49l.27,0a3,3,0,0,1,2.38,2.21,3.57,3.57,0,0,1,.11.55Z" transform="translate(18.06 -1.43)"/></g><path class="cls-7" d="M-3.5,115.57a32.27,32.27,0,0,1-10.24-1.44,19.74,19.74,0,0,1-3-1.38,2.42,2.42,0,0,1-1.29-2.7,2.6,2.6,0,0,1,1.79-2.19,10,10,0,0,1,6.52-.09c2.09.69,6.57,3.67,8.46,5.06.11-.63-2.7-3.07-2.94-3.29A11.08,11.08,0,0,1-8,102a5,5,0,0,1,1.25-4,2.66,2.66,0,0,1,4.18.59c1,1.56,1.22,3.35,1.83,5a21.63,21.63,0,0,1,1.6,5.88,3.36,3.36,0,0,0,.37-2.22c-.13-1.85.71-3.4,1.26-5A6.81,6.81,0,0,1,4.22,99,2.48,2.48,0,0,1,7,98.32a2.83,2.83,0,0,1,1.69,2.85,22.64,22.64,0,0,1-1.9,6.44c-.45,1.19-1.22,2.27-1.67,3.48a1.49,1.49,0,0,1-1,1c-.38-.36-1.49,1.38-2,1.2,0-.46-.71-.47-1.12-.25-.45.06,0,0-.43.13-1.22.37-1.49-.44-2.13,1-.38.13-.22-.44,0,0C-2.07,114.76-3.41,114.9-3.5,115.57Z" transform="translate(18.06 -1.43)"/><path class="cls-7" d="M5,112.75c2.46-3.25,5.16-6.23,8.79-8.2a3.38,3.38,0,0,1,3.49,0c1.45.83,1.42,3.56.48,5a4.93,4.93,0,0,1-1.25,1.33,26.57,26.57,0,0,1-6.68,3.38,7.79,7.79,0,0,0-1.37.84,50.11,50.11,0,0,1,5.15.78,7.85,7.85,0,0,1,3.67,1.7,2.73,2.73,0,0,1-.94,4.76,7.65,7.65,0,0,1-6.09-.4,13.37,13.37,0,0,1-3.69-2.66,4,4,0,0,0-1.39-1,2,2,0,0,1-1.6-1c.09,0-1.6-2.91-1.6-3C2,112.89,3.38,113,5,112.75Z" transform="translate(18.06 -1.43)"/><path class="cls-8" d="M-2.53,118.25a2.58,2.58,0,0,1-1.39,1.87,45.86,45.86,0,0,0-4.46,2.95,13.28,13.28,0,0,1-6,2.37,4.41,4.41,0,0,1-2.93-1.74c-.61-1.71-.17-2.73,1.32-3.94A15.1,15.1,0,0,1-9.23,117c2-.41,3.94-.48,5.89-.86A4.05,4.05,0,0,0-2.53,118.25Z" transform="translate(18.06 -1.43)"/><path class="cls-8" d="M4.85,118.67c1.08,1.78,2.28,3.5,3.22,5.35a7.72,7.72,0,0,1,.27,7.43c-.45.86-1,1.65-2.06,1.52-1.34-.15-2.56-.44-3.24-1.91a16.17,16.17,0,0,1-1.12-7.71c0-1.13.18-4.51.25-5.65C3.08,117.28,3.94,119.1,4.85,118.67Z" transform="translate(18.06 -1.43)"/><path class="cls-8" d="M1.8,118.85a41.42,41.42,0,0,1-2.33,7.28,13.65,13.65,0,0,0-.71,2.16,12.8,12.8,0,0,1-2.29,4,3.3,3.3,0,0,1-3,1,2.75,2.75,0,0,1-1.54-2.23c-.58-3.21,1-5.52,2.85-7.84,1.13-1.41,2.54-2.59,3.41-4.21C-.76,119.56.63,118.76,1.8,118.85Z" transform="translate(18.06 -1.43)"/><g id="Eoo6VP.tif-12" data-name="Eoo6VP.tif"><path class="cls-9" d="M6.78,115.26l0,.2a5.11,5.11,0,0,1-.8,2.05,10.06,10.06,0,0,1-2.23,2.42,18.85,18.85,0,0,1-2.27,1.59.18.18,0,0,1-.22,0,18,18,0,0,1-3-2.22,8.75,8.75,0,0,1-1.72-2.15,4.3,4.3,0,0,1-.62-2.26,3,3,0,0,1,1.57-2.64,2.83,2.83,0,0,1,1.13-.36l.06,0h.49l.28,0a2.58,2.58,0,0,1,1.57.83,5.22,5.22,0,0,1,.34.48c.08-.12.16-.25.25-.37a2.57,2.57,0,0,1,1.66-.94l.28,0H4l.27.05a3,3,0,0,1,2.39,2.21c0,.18.07.36.11.55Z" transform="translate(18.06 -1.43)"/></g><path class="cls-7" d="M82.71,160.19a32,32,0,0,1-8.56-5.8,19.27,19.27,0,0,1-2.09-2.56,2.42,2.42,0,0,1,0-3,2.58,2.58,0,0,1,2.57-1.18,9.92,9.92,0,0,1,5.9,2.79c1.57,1.54,4.27,6.19,5.37,8.26.37-.51-1.08-3.94-1.2-4.25a11,11,0,0,1-.08-8.43A4.94,4.94,0,0,1,87.54,143,2.65,2.65,0,0,1,91,145.34c.18,1.82-.38,3.54-.57,5.31a21.69,21.69,0,0,1-1.14,6,3.35,3.35,0,0,0,1.3-1.83c.7-1.71,2.14-2.74,3.36-4a6.78,6.78,0,0,1,2.94-2.08,2.46,2.46,0,0,1,2.82.59,2.83,2.83,0,0,1,.27,3.3,22.75,22.75,0,0,1-4.54,5c-.94.87-2.09,1.5-3,2.39a1.51,1.51,0,0,1-1.35.48c-.19-.49-2,.57-2.31.19.18-.42-.44-.73-.9-.71-.43-.14,0,0-.44-.07-1.26-.21-1.15-1.05-2.37,0-.4-.05,0-.5,0,0C84.35,160.09,83.09,159.63,82.71,160.19Z" transform="translate(18.06 -1.43)"/><path class="cls-7" d="M91.57,161.39a27.94,27.94,0,0,1,11.5-3.49,3.36,3.36,0,0,1,3.15,1.49c.94,1.39-.3,3.82-1.77,4.68a4.56,4.56,0,0,1-1.7.65,26.47,26.47,0,0,1-7.49.09,7.73,7.73,0,0,0-1.6.16,48.88,48.88,0,0,1,4.28,3,7.92,7.92,0,0,1,2.55,3.15,2.73,2.73,0,0,1-2.94,3.86,7.63,7.63,0,0,1-5.29-3,13.39,13.39,0,0,1-2.14-4,4,4,0,0,0-.83-1.47,2,2,0,0,1-1-1.64c.1,0-.15-3.33-.14-3.36C88.81,160.19,90,160.89,91.57,161.39Z" transform="translate(18.06 -1.43)"/><path class="cls-8" d="M82.4,163a2.6,2.6,0,0,1-2.07,1.06,47.28,47.28,0,0,0-5.31.68,13.13,13.13,0,0,1-6.46-.53,4.35,4.35,0,0,1-1.86-2.84c.2-1.8,1-2.53,2.92-3a15.07,15.07,0,0,1,7.3.53c1.94.49,3.75,1.3,5.67,1.82A4.07,4.07,0,0,0,82.4,163Z" transform="translate(18.06 -1.43)"/><path class="cls-8" d="M88.84,166.65c.19,2.07.51,4.14.54,6.22a7.77,7.77,0,0,1-3,6.79c-.78.57-1.59,1.05-2.52.46-1.13-.73-2.1-1.52-2.07-3.14a16.32,16.32,0,0,1,2.38-7.42c.54-1,2.16-4,2.72-5C87.86,164.62,87.84,166.63,88.84,166.65Z" transform="translate(18.06 -1.43)"/><path class="cls-8" d="M86,165.46a40.67,40.67,0,0,1-5.3,5.52,14.32,14.32,0,0,0-1.59,1.62,12.65,12.65,0,0,1-3.82,2.61,3.28,3.28,0,0,1-3.13-.41,2.69,2.69,0,0,1-.4-2.67c.89-3.14,3.33-4.52,6-5.78,1.63-.78,3.42-1.21,4.91-2.29C83.41,165,85,164.87,86,165.46Z" transform="translate(18.06 -1.43)"/><g id="Eoo6VP.tif-13" data-name="Eoo6VP.tif"><path class="cls-9" d="M92.55,161.38l0,.2a5,5,0,0,1-.79,2,10.53,10.53,0,0,1-2.23,2.43,21,21,0,0,1-2.27,1.59.18.18,0,0,1-.22,0,18.69,18.69,0,0,1-3-2.22,9.18,9.18,0,0,1-1.73-2.15,4.44,4.44,0,0,1-.61-2.27,3,3,0,0,1,1.57-2.63,2.83,2.83,0,0,1,1.13-.36l.06,0h.49l.28,0a2.55,2.55,0,0,1,1.57.83c.12.15.23.32.34.48.08-.12.15-.26.24-.37a2.51,2.51,0,0,1,1.66-.94l.28,0h.49l.27,0a3,3,0,0,1,2.38,2.21,3.57,3.57,0,0,1,.11.55Z" transform="translate(18.06 -1.43)"/></g><path class="cls-7" d="M145.28,62.46A32.27,32.27,0,0,1,135,61a20.76,20.76,0,0,1-3-1.38,2.42,2.42,0,0,1-1.29-2.7,2.58,2.58,0,0,1,1.79-2.19,9.92,9.92,0,0,1,6.52-.09c2.09.69,6.57,3.67,8.46,5.06.11-.63-2.7-3.07-2.94-3.29a11.1,11.1,0,0,1-3.79-7.54,5,5,0,0,1,1.25-4,2.66,2.66,0,0,1,4.18.59c1,1.56,1.22,3.35,1.83,5a21.63,21.63,0,0,1,1.6,5.88,3.36,3.36,0,0,0,.37-2.22c-.13-1.85.71-3.41,1.26-5A6.81,6.81,0,0,1,153,45.92a2.45,2.45,0,0,1,2.79-.71,2.82,2.82,0,0,1,1.7,2.85,22.64,22.64,0,0,1-1.9,6.44c-.46,1.19-1.22,2.26-1.67,3.48a1.49,1.49,0,0,1-1,1c-.38-.36-1.49,1.38-2,1.2,0-.46-.71-.47-1.12-.25-.45.06,0,0-.43.13-1.22.37-1.49-.44-2.13,1-.38.13-.22-.44,0,0C146.71,61.65,145.37,61.79,145.28,62.46Z" transform="translate(18.06 -1.43)"/><path class="cls-7" d="M153.76,59.64c2.46-3.25,5.16-6.23,8.79-8.2a3.38,3.38,0,0,1,3.49,0c1.45.83,1.42,3.56.48,5a4.75,4.75,0,0,1-1.25,1.32,26.28,26.28,0,0,1-6.68,3.39,7.22,7.22,0,0,0-1.37.84,49.48,49.48,0,0,1,5.14.78,7.88,7.88,0,0,1,3.68,1.7,2.73,2.73,0,0,1-.94,4.76,7.65,7.65,0,0,1-6.09-.4,13.37,13.37,0,0,1-3.69-2.66,4,4,0,0,0-1.39-1,2,2,0,0,1-1.6-1c.09,0-1.6-2.91-1.6-3C150.76,59.78,152.16,59.87,153.76,59.64Z" transform="translate(18.06 -1.43)"/><path class="cls-8" d="M146.25,65.14A2.58,2.58,0,0,1,144.86,67,45.86,45.86,0,0,0,140.4,70a13.28,13.28,0,0,1-6,2.37,4.41,4.41,0,0,1-2.93-1.74c-.61-1.71-.17-2.73,1.32-3.94a15.11,15.11,0,0,1,6.78-2.74c2-.41,4-.48,5.9-.86A4.05,4.05,0,0,0,146.25,65.14Z" transform="translate(18.06 -1.43)"/><path class="cls-8" d="M153.63,65.56c1.08,1.78,2.28,3.5,3.22,5.35a7.72,7.72,0,0,1,.27,7.43c-.45.86-1,1.65-2.06,1.52-1.34-.15-2.56-.44-3.24-1.91a16.17,16.17,0,0,1-1.12-7.71c0-1.13.18-4.51.25-5.65C151.86,64.17,152.72,66,153.63,65.56Z" transform="translate(18.06 -1.43)"/><path class="cls-8" d="M150.58,65.74A41.42,41.42,0,0,1,148.25,73a13.65,13.65,0,0,0-.71,2.16,13,13,0,0,1-2.29,4,3.36,3.36,0,0,1-3,1A2.75,2.75,0,0,1,140.72,78c-.58-3.21,1-5.52,2.85-7.84,1.13-1.41,2.54-2.59,3.41-4.21C148,66.45,149.41,65.65,150.58,65.74Z" transform="translate(18.06 -1.43)"/><g id="Eoo6VP.tif-14" data-name="Eoo6VP.tif"><path class="cls-9" d="M155.56,62.15a1.2,1.2,0,0,0,0,.2,5.11,5.11,0,0,1-.8,2.05,10.06,10.06,0,0,1-2.23,2.42,18.85,18.85,0,0,1-2.27,1.59.18.18,0,0,1-.22,0,18,18,0,0,1-3-2.22,8.94,8.94,0,0,1-1.72-2.15,4.33,4.33,0,0,1-.62-2.27,3,3,0,0,1,1.57-2.63,2.83,2.83,0,0,1,1.13-.36l.06,0h.49l.28,0a2.58,2.58,0,0,1,1.57.83,5.22,5.22,0,0,1,.34.48c.08-.12.16-.25.25-.37a2.57,2.57,0,0,1,1.66-.94l.28,0h.48l.27,0A3,3,0,0,1,155.45,61c.05.18.07.36.11.55Z" transform="translate(18.06 -1.43)"/></g></g><g class="cls-10"><path class="cls-11" d="M26.3,84.85h6.21V66.59L18,40.88H13.27V39.83H30.76v1.05H25.68l13,23.2,10.24-19.3c1.19-2.23.42-3.9-2.79-3.9H43V39.83H55.85v1.05h-.91c-2.16,0-3.34,1-5,4.11L39.33,65.06V84.85h6.21v1H26.3Z" transform="translate(18.06 -1.43)"/><path class="cls-11" d="M52.51,70.42c0-10,4.59-16.37,14.91-16.37s14.84,6.06,14.84,16c0,10.45-5.64,16.37-14.84,16.37C57.38,86.38,52.51,80.11,52.51,70.42ZM75.71,70c0-10.6-1.95-15.06-8.29-15.06s-8.36,4.6-8.36,15.47c0,10.39,2,15.06,8.36,15.06S75.71,80.67,75.71,70Z" transform="translate(18.06 -1.43)"/><path class="cls-11" d="M90.76,55.58H85.88v-1h11V78.09c0,5.23,1.19,7,5,7C109.58,85.13,112,77,112,73.35V55.58h-4.88v-1h11V84.85H123v1H112.16V78.44H112c-1.4,3.76-4.46,7.94-11.22,7.94s-10-2.93-10-9.55Z" transform="translate(18.06 -1.43)"/></g><path class="cls-12" d="M28,84.19h6.2V65.93L19.66,40.22H14.92v-1H32.41v1H27.32l13,23.2,10.25-19.3c1.18-2.23.42-3.9-2.79-3.9H44.6v-1H57.5v1h-.91c-2.16,0-3.34,1-5,4.11L41,64.4V84.19h6.2v1H28Z" transform="translate(18.06 -1.43)"/><path class="cls-12" d="M54.15,69.77c0-10,4.6-16.38,14.91-16.38s14.85,6.06,14.85,16c0,10.45-5.65,16.37-14.85,16.37C59,85.72,54.15,79.45,54.15,69.77Zm23.21-.42c0-10.6-2-15-8.3-15S60.7,58.89,60.7,69.77c0,10.38,2,15,8.36,15S77.36,80,77.36,69.35Z" transform="translate(18.06 -1.43)"/><path class="cls-12" d="M92.41,54.92H87.53v-1h11V77.43c0,5.23,1.19,7,4.95,7,7.73,0,10.17-8.15,10.17-11.78V54.92h-4.88v-1h11V84.19h4.88v1H113.8V77.78h-.14c-1.39,3.76-4.46,7.94-11.22,7.94s-10-2.92-10-9.54Z" transform="translate(18.06 -1.43)"/><g class="cls-10"><path class="cls-13" d="M51.91,141.47s.48-4.81.48-9.13V126.7h1v3.62c0,5.58,5.57,10.59,13.87,10.59,6.34,0,11.22-3.13,11.22-8.64,0-11.91-26.41-6.48-26.41-23.76,0-7.8,4.8-13.59,14.35-13.59,5.37,0,8.36,2,9.9,3.56,1.88-.07,2.43-1.12,3.13-3.07h.91a75.84,75.84,0,0,0-1.33,9.76v4.11H78v-4C78,100.08,73.86,96,66.47,96c-7.11,0-10.94,3.69-10.94,9.33,0,11.85,26.41,6.07,26.41,23.42,0,6.76-4.53,13.24-14.63,13.24-6.21,0-10-2.44-12-4.46-1.46.28-2.23,2.51-2.51,4Z" transform="translate(18.06 -1.43)"/><path class="cls-13" d="M86.12,140.42H91V92.48H86.12v-1h11v25.78h.14a11.21,11.21,0,0,1,11.08-7.6c6.9,0,10,2.93,10,9.55v21.25h4.87v1.05h-15.4v-1.05h4.39v-22.5c0-5.23-1.18-7-4.94-7-7.74,0-10.18,8.15-10.18,11.78v17.76h4.39v1.05H86.12Z" transform="translate(18.06 -1.43)"/><path class="cls-13" d="M133.44,126c0,11.85,2.79,14.91,8.29,14.91,5,0,9.83-3.27,9.83-8.43h1.11c0,4-2.65,7.18-6.55,8.64a13.45,13.45,0,0,1-5,.84c-8.57,0-14.14-4.67-14.14-16.1,0-11.84,5.71-16.24,14.07-16.24,7.88,0,12.34,3.91,12.34,12.55V125H133.44Zm13.87-2.09v-2.79c0-6.55-1.33-10.59-6.28-10.59-5.22,0-7.31,4.6-7.52,13.38Z" transform="translate(18.06 -1.43)"/></g><path class="cls-12" d="M53.55,140.81S54,136,54,131.68V126h1.05v3.62c0,5.58,5.57,10.59,13.86,10.59,6.34,0,11.22-3.13,11.22-8.64,0-11.91-26.41-6.48-26.41-23.76,0-7.8,4.81-13.59,14.36-13.59,5.36,0,8.36,2,9.89,3.56,1.88-.07,2.44-1.12,3.14-3.07h.9a76.38,76.38,0,0,0-1.32,9.76v4.11h-1v-4c0-5.23-4.18-9.34-11.56-9.34-7.11,0-10.94,3.69-10.94,9.34,0,11.84,26.41,6.06,26.41,23.41,0,6.76-4.53,13.24-14.64,13.24-6.2,0-10-2.44-12-4.46-1.47.28-2.23,2.51-2.51,4Z" transform="translate(18.06 -1.43)"/><path class="cls-12" d="M87.77,139.77h4.88v-48H87.77v-1h11v25.78h.14A11.2,11.2,0,0,1,110,109c6.9,0,10,2.92,10,9.54v21.26h4.88v1h-15.4v-1h4.39V117.26c0-5.23-1.18-7-5-7-7.73,0-10.17,8.15-10.17,11.78v17.77h4.39v1H87.77Z" transform="translate(18.06 -1.43)"/><path class="cls-12" d="M135.08,125.34c0,11.85,2.79,14.91,8.3,14.91,5,0,9.82-3.27,9.82-8.43h1.12c0,4-2.65,7.18-6.55,8.64a13.49,13.49,0,0,1-5,.84c-8.57,0-14.15-4.67-14.15-16.1,0-11.84,5.72-16.23,14.08-16.23,7.87,0,12.33,3.9,12.33,12.54v2.79H135.08ZM149,123.25v-2.79c0-6.55-1.32-10.59-6.27-10.59-5.23,0-7.32,4.6-7.53,13.38Z" transform="translate(18.06 -1.43)"/><path class="cls-14" d="M36.11,104.63H25v-.76H36.11V92.08h.76v11.79h11v.76h-11v12h-.76Z" transform="translate(18.06 -1.43)"/><polyline class="cls-5" points="146.96 144.79 153.22 144.21 153.81 150.54"/><path class="cls-5" d="M135.16,145.64A73.25,73.25,0,0,1,19.31,56" transform="translate(18.06 -1.43)"/></g></g></svg>